{
	"asset":{
		"generator":"Khronos glTF Blender I/O v3.6.27",
		"version":"2.0"
	},
	"scene":0,
	"scenes":[
		{
			"name":"Scene",
			"nodes":[
				0
			]
		}
	],
	"nodes":[
		{
			"mesh":0,
			"name":"C\u00edrculo",
			"rotation":[
				0.11061586439609528,
				0.11061586439609528,
				-0.6984010934829712,
				0.698401153087616
			],
			"translation":[
				1.200291395187378,
				0.7237952947616577,
				0
			]
		}
	],
	"materials":[
		{
			"doubleSided":true,
			"name":"Material.001",
			"pbrMetallicRoughness":{
				"baseColorTexture":{
					"index":0
				},
				"metallicFactor":0,
				"roughnessFactor":0.5
			}
		}
	],
	"meshes":[
		{
			"name":"Malla",
			"primitives":[
				{
					"attributes":{
						"POSITION":0,
						"NORMAL":1,
						"TEXCOORD_0":2
					},
					"indices":3,
					"material":0
				}
			]
		}
	],
	"textures":[
		{
			"sampler":0,
			"source":0
		}
	],
	"images":[
		{
			"bufferView":4,
			"mimeType":"image/png",
			"name":"C\u00edrculo Metallic"
		}
	],
	"accessors":[
		{
			"bufferView":0,
			"componentType":5126,
			"count":14980,
			"max":[
				0.7893775105476379,
				0.2344009280204773,
				0.6925256252288818
			],
			"min":[
				-0.7893774509429932,
				-0.24196025729179382,
				-0.8239812850952148
			],
			"type":"VEC3"
		},
		{
			"bufferView":1,
			"componentType":5126,
			"count":14980,
			"type":"VEC3"
		},
		{
			"bufferView":2,
			"componentType":5126,
			"count":14980,
			"type":"VEC2"
		},
		{
			"bufferView":3,
			"componentType":5123,
			"count":78720,
			"type":"SCALAR"
		}
	],
	"bufferViews":[
		{
			"buffer":0,
			"byteLength":179760,
			"byteOffset":0,
			"target":34962
		},
		{
			"buffer":0,
			"byteLength":179760,
			"byteOffset":179760,
			"target":34962
		},
		{
			"buffer":0,
			"byteLength":119840,
			"byteOffset":359520,
			"target":34962
		},
		{
			"buffer":0,
			"byteLength":157440,
			"byteOffset":479360,
			"target":34963
		},
		{
			"buffer":0,
			"byteLength":20726,
			"byteOffset":636800
		}
	],
	"samplers":[
		{
			"magFilter":9729,
			"minFilter":9987
		}
	],
	"buffers":[
		{
			"byteLength":657528,
			"uri":"data:application/octet-stream;base64,"
		}
	]
}
